<svg xmlns="http://www.w3.org/2000/svg" width="69" height="96" fill="none" viewBox="0 0 69 96">
  <path fill="#F3F4F6" d="M65.864 0H3.136C1.402 0 0 1.532 0 3.429V92.57C0 94.468 1.402 96 3.136 96h62.728C67.598 96 69 94.468 69 92.571V3.43C69 1.532 67.598 0 65.864 0zM7.057 7.714h54.886V30H7.057V7.714zm54.886 51.429H7.057V36.857h54.886v22.286zm0 29.143H7.057V66h54.886v22.286zm-47.83-69.429c0 1.137.414 2.227 1.149 3.03.735.804 1.732 1.256 2.772 1.256 1.04 0 2.037-.452 2.772-1.255.735-.804 1.148-1.894 1.148-3.03 0-1.137-.413-2.228-1.148-3.031-.735-.804-1.732-1.256-2.772-1.256-1.04 0-2.037.452-2.772 1.256-.735.803-1.148 1.894-1.148 3.03zm0 29.143c0 1.137.414 2.227 1.149 3.03.735.804 1.732 1.256 2.772 1.256 1.04 0 2.037-.452 2.772-1.255.735-.804 1.148-1.894 1.148-3.031 0-1.137-.413-2.227-1.148-3.03-.735-.804-1.732-1.256-2.772-1.256-1.04 0-2.037.452-2.772 1.255-.735.804-1.148 1.894-1.148 3.031zm0 29.143c0 1.136.414 2.227 1.149 3.03.735.804 1.732 1.256 2.772 1.256 1.04 0 2.037-.452 2.772-1.256.735-.803 1.148-1.894 1.148-3.03 0-1.137-.413-2.227-1.148-3.03-.735-.804-1.732-1.256-2.772-1.256-1.04 0-2.037.452-2.772 1.255-.735.804-1.148 1.894-1.148 3.03z"/>
</svg>
