<svg xmlns="http://www.w3.org/2000/svg" width="20" height="20" fill="none" viewBox="0 0 20 20">
  <path fill="#F3F4F6" d="M10 0C4.478 0 0 4.59 0 10.253c0 4.53 2.865 8.374 6.839 9.73.5.094.683-.223.683-.494 0-.244-.01-1.052-.014-1.909-2.782.62-3.369-1.21-3.369-1.21-.455-1.185-1.11-1.5-1.11-1.5-.907-.636.068-.623.068-.623 1.005.072 1.533 1.056 1.533 1.056.892 1.568 2.34 1.115 2.91.853.09-.663.35-1.115.635-1.371-2.221-.26-4.556-1.139-4.556-5.067 0-1.12.39-2.035 1.03-2.753-.103-.258-.446-1.3.097-2.713 0 0 .84-.276 2.751 1.051A9.363 9.363 0 0110 4.958c.85.004 1.706.118 2.505.345 1.909-1.327 2.747-1.051 2.747-1.051.545 1.412.202 2.455.098 2.713.642.718 1.03 1.633 1.03 2.753 0 3.938-2.34 4.805-4.566 5.059.358.318.678.942.678 1.898 0 1.372-.012 2.476-.012 2.814 0 .273.18.593.687.492 3.971-1.357 6.833-5.2 6.833-9.728C20 4.59 15.523 0 10 0z"/>
  <path fill="#F3F4F6" d="M3.788 14.721c-.022.051-.1.066-.172.031-.072-.033-.113-.103-.09-.154.022-.052.1-.067.173-.032.072.034.114.104.089.155zM4.193 15.185c-.048.045-.141.024-.205-.048-.065-.071-.077-.167-.029-.213.05-.045.14-.024.205.048.066.072.078.167.029.213zM4.587 15.775c-.061.044-.162.003-.224-.088-.06-.092-.06-.2.002-.245.062-.044.16-.004.223.086.061.093.061.202-.001.247zM5.127 16.346c-.055.062-.171.045-.257-.04-.087-.082-.112-.2-.057-.262.056-.062.173-.044.26.04.086.082.113.2.054.262zM5.872 16.677c-.024.08-.136.117-.25.083-.113-.035-.187-.13-.164-.21.024-.081.137-.12.25-.083.114.035.188.128.164.21zM6.69 16.738c.003.085-.093.155-.211.157-.12.002-.217-.066-.218-.15 0-.085.094-.154.213-.156.12-.002.217.066.217.15zM7.452 16.605c.014.083-.068.168-.186.19-.116.022-.224-.029-.239-.11-.014-.085.07-.17.186-.192.118-.02.224.029.24.113z"/>
</svg>
