<svg xmlns="http://www.w3.org/2000/svg" width="656" height="1404" fill="none" viewBox="0 0 656 1404">
  <path fill="#20232A" stroke="#20232A" d="M2.227 1213.54l-.998-471 327.133 189.292v469.998L2.227 1213.54z"/>
  <path fill="#39404E" stroke="#495162" d="M328.296 931.288L1.661 741.79l692.953-398.502 325.746 188.068-692.064 399.932z"/>
  <path fill="#20232A" stroke="#20232A" d="M328.295 932.289l693.325-400.5v471.001l-692.825 400-.5-470.501z"/>
  <path stroke="#F3F4F6" stroke-linecap="round" stroke-width="2" d="M156 832.5v212M198 505.5v220M183.968 813.947L156 832.5M293.613 783.368L214 831M214 831l-30-17M293.5 783L198 726.144"/>
  <g>
    <path stroke="#F3F4F6" stroke-linecap="round" stroke-width="2" d="M562.517 565.144L643 520M572.999 481.837l84.688-48.82M445 636.728L562 570M572.713 482.1L643 520"/>
  </g>
  <g filter="url(#filter0_d_13:61)">
    <g filter="url(#filter1_f_13:61)">
      <path fill="url(#paint0_linear_13:61)" fill-opacity=".7" d="M232.462 291.196c.206-8.694 10.645-13 16.92-6.979l199.706 191.591a10 10 0 0011.912 1.45l195.89-112.771c6.801-3.916 15.256 1.171 14.983 9.014l-9.705 278.685a10.002 10.002 0 01-4.037 7.684L470.059 799.377a10 10 0 01-11.376.373L260.5 672l-31.04-22.91c-1.084-.8-2.603.07-2.46 1.41l-2.5-23.5 7.962-335.804z"/>
    </g>
    <rect width="300.85" height="428.075" fill="url(#paint1_linear_13:61)" fill-opacity=".2" rx="10" transform="matrix(.86603 .5 0 1 209 228)"/>
    <rect width="299.85" height="427.075" x=".433" y=".75" stroke="#2EF0D2" stroke-opacity=".1" rx="9.5" transform="matrix(.86603 .5 0 1 209.058 227.784)"/>
    <rect width="266.166" height="403.935" fill="url(#paint2_linear_13:61)" rx="10" transform="matrix(.86603 .5 0 1 224.019 248.741)"/>
    <g style="mix-blend-mode:overlay">
      <rect width="88.219" height="21.726" fill="url(#paint3_linear_13:61)" rx="10" transform="matrix(.86603 .5 0 1 339.599 359.727)"/>
      <rect width="58.813" height="21.726" fill="url(#paint4_linear_13:61)" rx="10" transform="matrix(.86603 .5 0 1 365.065 409.03)"/>
      <rect width="190.011" height="21.726" fill="url(#paint5_linear_13:61)" rx="10" transform="matrix(.86603 .5 0 1 254.057 433.451)"/>
      <rect width="151.556" height="21.726" fill="url(#paint6_linear_13:61)" rx="10" transform="matrix(.86603 .5 0 1 254.057 468.051)"/>
      <rect width="211.877" height="21.726" fill="url(#paint7_linear_13:61)" rx="10" transform="matrix(.86603 .5 0 1 254.057 502.651)"/>
      <rect width="104.808" height="21.726" fill="url(#paint8_linear_13:61)" rx="10" transform="matrix(.86603 .5 0 1 254.057 537.251)"/>
      <rect width="44.487" height="21.726" fill="url(#paint9_linear_13:61)" rx="10" transform="matrix(.86603 .5 0 1 254.057 606.451)"/>
    </g>
  </g>
  <g filter="url(#filter2_d_13:61)">
    <rect width="158.194" height="100.276" fill="#F3F4F6" rx="10" transform="matrix(.86603 .5 0 1 129 370)"/>
    <path stroke="#979797" stroke-linecap="round" stroke-opacity=".8" d="M.5-.5h116.258" transform="matrix(.86603 .5 0 1 147.026 452.034)"/>
    <path stroke="#6A6A6A" stroke-linecap="round" stroke-width="2" d="M160.122 437.075c5.051 2.916 8.132 5.168 11.416 2.134 2.812-2.597 2.325-7.679 4.073-11.098.815-1.594.148 4.647.133 6.921-.017 2.889-.202 5.601-.467 8.325-.172 1.775-.722 6.106 1.436 3.774 3.936-4.255 4.845-11.09 5.341-18.603.348-5.274 1.176-6.736 2.737.864 1.931 9.403 4.21 18.535 8.913 27.947 3.885 7.773 3.873 4.914 4.74-.447.659-4.067.708-8.539.735-13.026.031-5.148 0-1.071 0 1.353 0 13.98.077 28.007 0 41.941-.006 1.02.581 5.28-1.269 3.804-3.538-2.821-6.455-8.609-8.879-12.766-10.446-17.911-20.936-35.443-36.253-43.692-3.786-2.039-9.144-4.536-11.784-2.267-1.244 1.069-1.959 4.75.233 7.297 5.028 5.843 13.823 9.658 19.095 12.417 11.992 6.277 23.86 10.48 35.652 14.774 19.04 6.934 38.164 14.917 57.217 22.052 6.321 2.367 2.868 1.036-.534.288"/>
  </g>
  <g>
    <rect width="73.974" height="63.407" fill="#3338D6" rx="10" transform="scale(1.20347 .74274) rotate(45 -597.947 911.57)"/>
    <rect width="73.974" height="63.407" fill="#2EF0D2" fill-opacity=".94" rx="10" transform="scale(1.20347 .74274) rotate(45 -587.502 907.243)"/>
    <rect width="73.974" height="63.407" fill="#2EF0D2" fill-opacity=".94" rx="10" transform="scale(1.20347 .74274) rotate(45 -593.2 909.603)"/>
    <rect width="73.974" height="63.407" fill="#F3F4F6" rx="10" transform="matrix(.85098 .5252 -.85098 .5252 564.958 503)"/>
  </g>
  <defs>
    <linearGradient id="paint0_linear_13:61" x1="642" x2="149" y1="506" y2="891" gradientUnits="userSpaceOnUse">
      <stop stop-color="#495162" stop-opacity=".3"/>
      <stop offset="1"/>
      <stop offset="1" stop-opacity=".29"/>
    </linearGradient>
    <linearGradient id="paint1_linear_13:61" x1="300.85" x2="49.33" y1="86.979" y2="277.859" gradientUnits="userSpaceOnUse">
      <stop stop-color="#3338D6" stop-opacity=".8"/>
      <stop offset="1" stop-color="#2EF0D2" stop-opacity=".5"/>
    </linearGradient>
    <linearGradient id="paint2_linear_13:61" x1="266.166" x2="33.353" y1="82.075" y2="247.729" gradientUnits="userSpaceOnUse">
      <stop stop-color="#3338D6"/>
      <stop offset="1" stop-color="#2EF0D2" stop-opacity=".94"/>
    </linearGradient>
    <linearGradient id="paint3_linear_13:61" x1="-6.032" x2="106.316" y1="21.726" y2="21.726" gradientUnits="userSpaceOnUse">
      <stop stop-color="#fff" stop-opacity=".8"/>
      <stop offset="1" stop-color="#F3F4F6" stop-opacity=".2"/>
    </linearGradient>
    <linearGradient id="paint4_linear_13:61" x1="-16.588" x2="84.449" y1="21.726" y2="21.726" gradientUnits="userSpaceOnUse">
      <stop stop-color="#fff" stop-opacity=".8"/>
      <stop offset="1" stop-color="#F3F4F6" stop-opacity=".2"/>
    </linearGradient>
    <linearGradient id="paint5_linear_13:61" x1="0" x2="214.139" y1="21.726" y2="21.726" gradientUnits="userSpaceOnUse">
      <stop stop-color="#fff" stop-opacity=".8"/>
      <stop offset="1" stop-color="#F3F4F6" stop-opacity=".2"/>
    </linearGradient>
    <linearGradient id="paint6_linear_13:61" x1="-3.77" x2="190.765" y1="21.726" y2="21.726" gradientUnits="userSpaceOnUse">
      <stop stop-color="#fff" stop-opacity=".8"/>
      <stop offset="1" stop-color="#F3F4F6" stop-opacity=".2"/>
    </linearGradient>
    <linearGradient id="paint7_linear_13:61" x1="-5.278" x2="251.086" y1="21.726" y2="21.726" gradientUnits="userSpaceOnUse">
      <stop stop-color="#fff" stop-opacity=".8"/>
      <stop offset="1" stop-color="#F3F4F6" stop-opacity=".2"/>
    </linearGradient>
    <linearGradient id="paint8_linear_13:61" x1="-12.064" x2="166.636" y1="21.726" y2="21.726" gradientUnits="userSpaceOnUse">
      <stop stop-color="#fff" stop-opacity=".8"/>
      <stop offset="1" stop-color="#F3F4F6" stop-opacity=".2"/>
    </linearGradient>
    <linearGradient id="paint9_linear_13:61" x1="-6.786" x2="104.808" y1="21.726" y2="21.726" gradientUnits="userSpaceOnUse">
      <stop stop-color="#fff" stop-opacity=".8"/>
      <stop offset="1" stop-color="#F3F4F6" stop-opacity=".2"/>
    </linearGradient>
    <filter id="filter0_d_13:61" width="482.88" height="590.866" x="197" y="219.817" color-interpolation-filters="sRGB" filterUnits="userSpaceOnUse">
      <feFlood flood-opacity="0" result="BackgroundImageFix"/>
      <feColorMatrix in="SourceAlpha" result="hardAlpha" values="0 0 0 0 0 0 0 0 0 0 0 0 0 0 0 0 0 0 127 0"/>
      <feOffset dx="-2" dy="-2"/>
      <feGaussianBlur stdDeviation="5"/>
      <feComposite in2="hardAlpha" operator="out"/>
      <feColorMatrix values="0 0 0 0 0 0 0 0 0 0 0 0 0 0 0 0 0 0 0.1 0"/>
      <feBlend in2="BackgroundImageFix" result="effect1_dropShadow_13:61"/>
      <feBlend in="SourceGraphic" in2="effect1_dropShadow_13:61" result="shape"/>
    </filter>
    <filter id="filter1_f_13:61" width="481.38" height="553.931" x="207.5" y="264.414" color-interpolation-filters="sRGB" filterUnits="userSpaceOnUse">
      <feFlood flood-opacity="0" result="BackgroundImageFix"/>
      <feBlend in="SourceGraphic" in2="BackgroundImageFix" result="shape"/>
      <feGaussianBlur result="effect1_foregroundBlur_13:61" stdDeviation="8.5"/>
    </filter>
    <filter id="filter2_d_13:61" width="157" height="191.739" x="121" y="365.817" color-interpolation-filters="sRGB" filterUnits="userSpaceOnUse">
      <feFlood flood-opacity="0" result="BackgroundImageFix"/>
      <feColorMatrix in="SourceAlpha" result="hardAlpha" values="0 0 0 0 0 0 0 0 0 0 0 0 0 0 0 0 0 0 127 0"/>
      <feOffset dx="2" dy="2"/>
      <feGaussianBlur stdDeviation="5"/>
      <feComposite in2="hardAlpha" operator="out"/>
      <feColorMatrix values="0 0 0 0 0 0 0 0 0 0 0 0 0 0 0 0 0 0 0.1 0"/>
      <feBlend in2="BackgroundImageFix" result="effect1_dropShadow_13:61"/>
      <feBlend in="SourceGraphic" in2="effect1_dropShadow_13:61" result="shape"/>
    </filter>
  </defs>
</svg>
