<svg xmlns="http://www.w3.org/2000/svg" width="660" height="1033" fill="none" viewBox="0 0 660 1033">
  <path fill="#39404E" stroke="#495162" d="M328.296 930.39L1.661 740.891 694.614 342.39l325.746 188.067L328.296 930.39z"/>
  <path fill="#0C0D10" fill-rule="evenodd" d="M328.795 972.967v59.533h-328V740.887l328 189.151v.4L660 740.006V1032.5H329.5l-.705-59.533z" clip-rule="evenodd"/>
  <path fill="#0C0D10" d="M328.795 972.967l.5-.006-1 .006h.5zm0 59.533v.5h.5v-.5h-.5zm-328 0h-.5v.5h.5v-.5zm0-291.613l.25-.433-.75-.432v.865h.5zm328 189.151h.5v-.289l-.25-.144-.25.433zm0 .4h-.5v.865l.749-.431-.249-.434zM660 740.006h.5v-.864l-.749.431.249.433zm0 292.494v.5h.5v-.5h-.5zm-330.5 0l-.5.01.006.49h.494v-.5zm-1.205-59.533v59.533h1v-59.533h-1zm.5 59.033h-328v1h328v-1zm-327.5.5V740.887h-1V1032.5h1zm-.75-291.18l328 189.151.5-.866-328-189.151-.5.866zm327.75 188.718v.4h1v-.4h-1zm.749.834L660.249 740.44l-.498-.867-331.205 190.432.498.867zM659.5 740.006V1032.5h1V740.006h-1zM660 1032H329.5v1H660v-1zm-330 .49l-.705-59.529-1 .012.705 59.537 1-.02z"/>
  <path stroke="#F3F4F6" stroke-linecap="square" stroke-width="2" d="M156 833v199"/>
  <path stroke="#F3F4F6" stroke-linecap="round" stroke-width="2" d="M198 504.602v220M183.968 813.049L156 831.602M293.613 782.469L214 830.102M214 830.102l-30-17M293.5 782.102L198 725.245"/>
  <g>
    <path stroke="#F3F4F6" stroke-linecap="round" stroke-width="2" d="M562.517 564.246L643 519.102M572.999 480.939l84.688-48.821M445 635.83l117-66.728M572.713 481.202l70.287 37.9"/>
  </g>
  <g filter="url(#filter0_d_13:61)">
    <g filter="url(#filter1_f_13:61)">
      <path fill="url(#paint0_linear_13:61)" fill-opacity=".7" d="M231.813 281.52c.207-8.682 10.634-12.955 16.923-6.936l193.737 185.421c3.207 3.068 8.045 3.673 11.891 1.485l190.024-108.08c6.81-3.873 15.257 1.245 14.983 9.079l-9.419 268.788a9.96 9.96 0 01-4.059 7.682L463.157 773.06a10.019 10.019 0 01-11.352.333L259.111 649.258l-30.212-22.269c-1.053-.776-2.523.063-2.384 1.362l-2.433-22.738 7.731-324.093z"/>
    </g>
    <rect width="292.737" height="414.031" fill="url(#paint1_linear_13:61)" fill-opacity=".2" rx="10" transform="matrix(.86603 .5 0 1 209 219.651)"/>
    <rect width="291.737" height="413.031" x=".433" y=".75" stroke="#2EF0D2" stroke-opacity=".1" rx="9.5" transform="matrix(.86603 .5 0 1 209.058 219.435)"/>
    <rect width="258.988" height="390.683" fill="url(#paint2_linear_13:61)" rx="10" transform="matrix(.86603 .5 0 1 223.614 239.762)"/>
    <g style="mix-blend-mode:overlay">
      <rect width="88.219" height="21.013" fill="url(#paint3_linear_13:61)" rx="10" transform="matrix(.86603 .5 0 1 339.599 349.53)"/>
      <rect width="58.813" height="21.013" fill="url(#paint4_linear_13:61)" rx="10" transform="matrix(.86603 .5 0 1 365.065 397.698)"/>
      <rect width="190.011" height="21.013" fill="url(#paint5_linear_13:61)" rx="10" transform="matrix(.86603 .5 0 1 254.056 419.215)"/>
      <rect width="151.556" height="21.013" fill="url(#paint6_linear_13:61)" rx="10" transform="matrix(.86603 .5 0 1 254.056 452.68)"/>
      <rect width="211.877" height="21.013" fill="url(#paint7_linear_13:61)" rx="10" transform="matrix(.86603 .5 0 1 254.056 486.145)"/>
      <rect width="104.808" height="21.013" fill="url(#paint8_linear_13:61)" rx="10" transform="matrix(.86603 .5 0 1 254.056 519.61)"/>
      <rect width="44.487" height="21.013" fill="url(#paint9_linear_13:61)" rx="10" transform="matrix(.86603 .5 0 1 254.056 586.539)"/>
    </g>
  </g>
  <g filter="url(#filter2_d_13:61)">
    <rect width="158.194" height="100.276" fill="#F3F4F6" rx="10" transform="matrix(.86603 .5 0 1 129 369.102)"/>
    <path stroke="#979797" stroke-linecap="round" stroke-opacity=".8" d="M.5-.5h116.258" transform="matrix(.86603 .5 0 1 147.026 451.135)"/>
    <path stroke="#6A6A6A" stroke-linecap="round" stroke-width="2" d="M160.122 436.176c5.051 2.916 8.132 5.169 11.416 2.135 2.812-2.597 2.325-7.68 4.073-11.098.815-1.595.148 4.647.133 6.921-.017 2.889-.202 5.601-.467 8.325-.172 1.775-.722 6.106 1.436 3.774 3.936-4.256 4.845-11.09 5.341-18.604.348-5.274 1.176-6.735 2.737.865 1.931 9.403 4.21 18.534 8.913 27.947 3.885 7.773 3.873 4.913 4.74-.447.659-4.067.708-8.539.735-13.026.031-5.148 0-1.071 0 1.353 0 13.979.077 28.007 0 41.941-.006 1.02.581 5.279-1.269 3.804-3.538-2.821-6.455-8.61-8.879-12.767-10.446-17.91-20.936-35.442-36.253-43.692-3.786-2.038-9.144-4.535-11.784-2.267-1.244 1.069-1.959 4.751.233 7.298 5.028 5.843 13.823 9.658 19.095 12.417 11.992 6.276 23.86 10.479 35.652 14.774 19.04 6.934 38.164 14.917 57.217 22.051 6.321 2.367 2.868 1.037-.534.289"/>
  </g>
  <g>
    <rect width="73.974" height="63.407" fill="#3338D6" rx="10" transform="scale(1.20347 .74274) rotate(45 -596.486 910.964)"/>
    <rect width="73.974" height="63.407" fill="#2EF0D2" fill-opacity=".94" rx="10" transform="scale(1.20347 .74274) rotate(45 -586.042 906.638)"/>
    <rect width="73.974" height="63.407" fill="#2EF0D2" fill-opacity=".94" rx="10" transform="scale(1.20347 .74274) rotate(45 -591.738 908.998)"/>
    <rect width="73.974" height="63.407" fill="#F3F4F6" rx="10" transform="scale(1.20347 .74274) rotate(45 -581.295 904.672)"/>
  </g>
  <defs>
    <linearGradient id="paint0_linear_13:61" x1="630.323" x2="153.118" y1="489.99" y2="863.888" gradientUnits="userSpaceOnUse">
      <stop stop-color="#495162" stop-opacity=".3"/>
      <stop offset="1"/>
      <stop offset="1" stop-opacity=".29"/>
    </linearGradient>
    <linearGradient id="paint1_linear_13:61" x1="292.737" x2="49.078" y1="84.126" y2="270.155" gradientUnits="userSpaceOnUse">
      <stop stop-color="#3338D6" stop-opacity=".8"/>
      <stop offset="1" stop-color="#2EF0D2" stop-opacity=".5"/>
    </linearGradient>
    <linearGradient id="paint2_linear_13:61" x1="258.988" x2="33.372" y1="79.382" y2="240.884" gradientUnits="userSpaceOnUse">
      <stop stop-color="#3338D6"/>
      <stop offset="1" stop-color="#2EF0D2" stop-opacity=".94"/>
    </linearGradient>
    <linearGradient id="paint3_linear_13:61" x1="-6.032" x2="106.316" y1="21.013" y2="21.013" gradientUnits="userSpaceOnUse">
      <stop stop-color="#fff" stop-opacity=".8"/>
      <stop offset="1" stop-color="#F3F4F6" stop-opacity=".2"/>
    </linearGradient>
    <linearGradient id="paint4_linear_13:61" x1="-16.588" x2="84.449" y1="21.013" y2="21.013" gradientUnits="userSpaceOnUse">
      <stop stop-color="#fff" stop-opacity=".8"/>
      <stop offset="1" stop-color="#F3F4F6" stop-opacity=".2"/>
    </linearGradient>
    <linearGradient id="paint5_linear_13:61" x1="0" x2="214.139" y1="21.013" y2="21.013" gradientUnits="userSpaceOnUse">
      <stop stop-color="#fff" stop-opacity=".8"/>
      <stop offset="1" stop-color="#F3F4F6" stop-opacity=".2"/>
    </linearGradient>
    <linearGradient id="paint6_linear_13:61" x1="-3.77" x2="190.765" y1="21.013" y2="21.013" gradientUnits="userSpaceOnUse">
      <stop stop-color="#fff" stop-opacity=".8"/>
      <stop offset="1" stop-color="#F3F4F6" stop-opacity=".2"/>
    </linearGradient>
    <linearGradient id="paint7_linear_13:61" x1="-5.278" x2="251.086" y1="21.013" y2="21.013" gradientUnits="userSpaceOnUse">
      <stop stop-color="#fff" stop-opacity=".8"/>
      <stop offset="1" stop-color="#F3F4F6" stop-opacity=".2"/>
    </linearGradient>
    <linearGradient id="paint8_linear_13:61" x1="-12.064" x2="166.636" y1="21.013" y2="21.013" gradientUnits="userSpaceOnUse">
      <stop stop-color="#fff" stop-opacity=".8"/>
      <stop offset="1" stop-color="#F3F4F6" stop-opacity=".2"/>
    </linearGradient>
    <linearGradient id="paint9_linear_13:61" x1="-6.786" x2="104.808" y1="21.013" y2="21.013" gradientUnits="userSpaceOnUse">
      <stop stop-color="#fff" stop-opacity=".8"/>
      <stop offset="1" stop-color="#F3F4F6" stop-opacity=".2"/>
    </linearGradient>
    <filter id="filter0_d_13:61" width="470.377" height="572.765" x="197" y="211.468" color-interpolation-filters="sRGB" filterUnits="userSpaceOnUse">
      <feFlood flood-opacity="0" result="BackgroundImageFix"/>
      <feColorMatrix in="SourceAlpha" result="hardAlpha" values="0 0 0 0 0 0 0 0 0 0 0 0 0 0 0 0 0 0 127 0"/>
      <feOffset dx="-2" dy="-2"/>
      <feGaussianBlur stdDeviation="5"/>
      <feComposite in2="hardAlpha" operator="out"/>
      <feColorMatrix values="0 0 0 0 0 0 0 0 0 0 0 0 0 0 0 0 0 0 0.1 0"/>
      <feBlend in2="BackgroundImageFix" result="effect1_dropShadow_13:61"/>
      <feBlend in="SourceGraphic" in2="effect1_dropShadow_13:61" result="shape"/>
    </filter>
    <filter id="filter1_f_13:61" width="469.295" height="537.22" x="207.082" y="254.774" color-interpolation-filters="sRGB" filterUnits="userSpaceOnUse">
      <feFlood flood-opacity="0" result="BackgroundImageFix"/>
      <feBlend in="SourceGraphic" in2="BackgroundImageFix" result="shape"/>
      <feGaussianBlur result="effect1_foregroundBlur_13:61" stdDeviation="8.5"/>
    </filter>
    <filter id="filter2_d_13:61" width="157" height="191.739" x="121" y="364.919" color-interpolation-filters="sRGB" filterUnits="userSpaceOnUse">
      <feFlood flood-opacity="0" result="BackgroundImageFix"/>
      <feColorMatrix in="SourceAlpha" result="hardAlpha" values="0 0 0 0 0 0 0 0 0 0 0 0 0 0 0 0 0 0 127 0"/>
      <feOffset dx="2" dy="2"/>
      <feGaussianBlur stdDeviation="5"/>
      <feComposite in2="hardAlpha" operator="out"/>
      <feColorMatrix values="0 0 0 0 0 0 0 0 0 0 0 0 0 0 0 0 0 0 0.1 0"/>
      <feBlend in2="BackgroundImageFix" result="effect1_dropShadow_13:61"/>
      <feBlend in="SourceGraphic" in2="effect1_dropShadow_13:61" result="shape"/>
    </filter>
  </defs>
</svg>
