				<svg xmlns="http://www.w3.org/2000/svg" width="75" height="42" fill="none" viewBox="0 0 75 42">
					<rect width="20" height="40" x="1" y="1" stroke="#F3F4F6" stroke-linejoin="round" stroke-width="2" rx="10" />
					<circle class="animated-icon" cx="11" cy="13.4" r="6" fill="#EF4647" />
					<g>
						<path
							stroke="#fff"
							stroke-linecap="round"
							stroke-linejoin="round"
							stroke-miterlimit="10"
							stroke-width="4"
							d="M52.2 29a2.4 2.4 0 100 4.8h8c6.627 0 12-5.373 12-12s-5.373-12-12-12h-6.4a2.4 2.4 0 100 4.8h-1.6a2.4 2.4 0 100 4.8h-1.6a2.4 2.4 0 100 4.8H39.4a2.4 2.4 0 100 4.8h18.4-5.6z"
						/>
						<path
							class="animated-icon"
							stroke="#EF4647"
							stroke-linecap="round"
							stroke-linejoin="round"
							stroke-miterlimit="10"
							stroke-width="2"
							d="M41 9v11.2M38.6 17.8l2.4 2.4 2.4-2.4"
						/>
					</g>
				</svg>