<svg xmlns="http://www.w3.org/2000/svg" width="20" height="21" fill="none" viewBox="0 0 20 21">
  <path fill="#F3F4F6" fill-rule="evenodd" d="M10 .177c-5.523 0-10 4.477-10 10s4.477 10 10 10 10-4.477 10-10-4.477-10-10-10zM4.8 8.46h2.267v6.809H4.8v-6.81zm2.416-2.107c-.015-.667-.492-1.176-1.267-1.176-.775 0-1.282.509-1.282 1.176 0 .654.492 1.177 1.252 1.177h.015c.79 0 1.282-.523 1.282-1.177zM12.63 8.3c1.492 0 2.61.973 2.61 3.065v3.904h-2.267v-3.643c0-.915-.327-1.54-1.148-1.54-.626 0-.999.421-1.163.828-.06.146-.074.349-.074.552v3.803H8.32s.03-6.17 0-6.81h2.267v.965c.3-.463.84-1.124 2.043-1.124z" clip-rule="evenodd"/>
</svg>
