<svg xmlns="http://www.w3.org/2000/svg" width="20" height="21" fill="none" viewBox="0 0 20 21">
  <path fill="#F3F4F6" fill-rule="evenodd" d="M20 10.335c0 5.522-4.477 10-10 10s-10-4.478-10-10c0-5.523 4.477-10 10-10s10 4.477 10 10zM4.746 6.681a.535.535 0 01.168.446v6.031a.705.705 0 01-.18.599l-1.4 1.738v.23h3.97v-.23l-1.4-1.738a.73.73 0 01-.193-.599V7.943l3.486 7.783h.405l2.994-7.783v6.203c0 .166 0 .198-.106.306l-1.077 1.07v.23h5.229v-.23l-1.04-1.045a.322.322 0 01-.118-.305V6.497a.322.322 0 01.118-.306l1.065-1.044v-.23h-3.685l-2.627 6.707-2.988-6.706H3.5v.229l1.245 1.535z" clip-rule="evenodd"/>
</svg>
