<svg xmlns="http://www.w3.org/2000/svg" width="140" height="200" fill="none" viewBox="0 0 140 200">
  <path fill="url(#paint0_linear_414_61)" fill-rule="evenodd" d="M65.18.85a18.688 18.688 0 0118.324 4.176l4.23 3.949L124.142 44.9l11.602 13.778a18.112 18.112 0 013.521 16.775l-.538 1.83a19.825 19.825 0 01-4.638 8.052l-11.627 12.255a2.629 2.629 0 000 3.618l10.955 11.546c2.639 2.782 4.686 6.274 5.384 10.044l.223.955.222 1.195.277 2.15c.239 2.628.249 5.158-.277 7.68l-.445 2.136a19.827 19.827 0 01-6.553 11.051l-7.776 7.324-35.836 35.12c-.74.749-3.345 2.867-4.062 3.583l-1.988 1.543a19.822 19.822 0 01-5.456 2.821l-.76.254a17.667 17.667 0 01-16.965-3.247L52.32 189.4l-36.393-34.477-10.665-10.999A18.656 18.656 0 010 130.936v-2.47a19.827 19.827 0 016.138-14.343l4.374-4.703 7.367-8.172a2.628 2.628 0 00-.09-3.468L8.63 87.89l-6.136-7.942A11.949 11.949 0 010 72.642v-1.67a19.83 19.83 0 014.662-12.773l11.106-12.09 33.925-33.925c.983-.915 2.58-2.646 3.345-3.21l1.194-1.09 1.434-1.195 3.555-2.862a19.461 19.461 0 015.74-2.908l.218-.068zm52.813 101.267l-.004.005.01.01-.006-.015zM75.566 22.222a8.387 8.387 0 00-9.806-.53l-.171.11c-.483.31-.934.667-1.346 1.067l-44.23 42.876a5.32 5.32 0 00-.059 7.581l3.416 3.416.002.002 36.1 35.872a3.345 3.345 0 01.084 4.659l-7.335 7.836a3.345 3.345 0 01-4.664.214L33.83 113.124a1.434 1.434 0 00-1.996.089l-6.064 6.443-8.451 8.451a1.434 1.434 0 00-.058 1.966l6.128 6.894 38.792 38.325a11.4 11.4 0 001.69 1.377l2.469 1.646a7.404 7.404 0 009.575-1.169l9.632-10.549 31.39-32.796a7.183 7.183 0 001.118-8.41l-.09-.165a7.514 7.514 0 00-1.185-1.615L76.904 82.217c-2.186-2.269-3.902-4.042-1.648-6.244l7.167-6.69c2.28-2.227 3.972-.661 6.178 1.64l16.933 17.661a1.434 1.434 0 002.182-.132l12.646-16.861.646.484.001-.006-.622-.51a2.797 2.797 0 00-.187-3.748l-6.443-6.443-38.191-39.145zm41.267 57.259l-.432.576.186-.18.246-.396zm-1.267 40.114l.318.33s-.21-.221-.318-.33zm6.739-52.153a4.71 4.71 0 00-.146-.236l.169.17-.008.01-.015.056zm-45.87-46.145l-.024-.025-.2.244.225-.219z" clip-rule="evenodd"/>
  <defs>
    <linearGradient id="paint0_linear_414_61" x1="69.522" x2="69.522" y1="-10.02" y2="228.41" gradientUnits="userSpaceOnUse">
      <stop stop-color="#3CC7FA"/>
      <stop offset="1" stop-color="#344EB8"/>
    </linearGradient>
  </defs>
</svg>
