<svg xmlns="http://www.w3.org/2000/svg" width="132" height="150" fill="none" viewBox="0 0 132 150">
  <path fill="#F0FF00" d="M46.408.494L120.5 32.5l7.5 17-11 15-1.5-2.5 16 38-47.879 48.828L55.5 137.5 35 82.5 7.972 70.452 1 49.917 46.669.21l.092.283h-.353z"/>
  <path fill="#000" fill-rule="evenodd" d="M45.956.814L46.3 0l74.498 31.499.005-.002 7.908 18.665-.011.004.015.012-11.313 15.082h-.001l14.563 35.008-.031.013.028.028-47.6 49.1-.02-.019-.014.039-29.325-10.968-.003-.002.002-.003-20.728-55.273L8.003 71.46.004 50.468 0 50.463 45.956.814zm74.086 31.451L47.004 1.383l5.738 17.137 26.08 11.555-.024.056.128-.053 23.842 57.617 27.64 11.438-24.405-58.671-.028-.013.433-.902 20.985 10.067-7.351-17.349zM77.79 30.712L52.644 19.57 9.568 71.064l24.738 11.038 43.484-51.39zM46.884 1.332l-.032-.013-.033.035.065-.021zm60.472 39.779l19.789 9.493-10.189 13.585-9.6-23.078zm23.232 59.178l-28.274-11.7-46.25 49.201 28.011 10.477 46.513-47.978zM51.839 18.974L46.173 2.052 1.158 50.685l7.558 19.84 43.123-51.551zm3.659 117.96L35.145 82.659 78.431 31.5l23.283 56.266-46.217 49.168z" clip-rule="evenodd"/>
</svg>
