<svg xmlns="http://www.w3.org/2000/svg" width="97" height="97" fill="none" viewBox="0 0 97 97">
  <path fill="#F3F4F6" fill-rule="evenodd" d="M13.04 48.302c-.596.762-.838 1.751-.671 2.75.166 1 .727 1.928 1.559 2.58.832.65 1.867.973 2.877.895 1.01-.078 1.913-.55 2.51-1.312.596-.762.838-1.751.672-2.75-.167-1-.727-1.928-1.56-2.58-.831-.65-1.866-.973-2.877-.895-1.01.078-1.913.55-2.51 1.312zM9.429 59.377c-2.225-1.738-3.815-4.14-4.488-6.783-.674-2.642-.388-5.353.807-7.654 1.196-2.3 3.223-4.04 5.723-4.913 2.5-.873 5.312-.822 7.938.145l14.264-18.214c-1.34-1.987-2.067-4.275-2.082-6.563-.016-2.288.679-4.467 1.994-6.25 1.314-1.783 3.186-3.086 5.368-3.738 2.183-.65 4.573-.62 6.855.09s4.349 2.066 5.928 3.887c1.579 1.82 2.595 4.023 2.915 6.314.32 2.292-.071 4.566-1.122 6.521a10.13 10.13 0 01-4.766 4.433l7.093 42.634c.401.1.801.224 1.194.369l14.268-18.22c-1.563-2.317-2.283-5.033-2.033-7.667.25-2.635 1.454-5.018 3.4-6.728 1.944-1.71 4.506-2.639 7.23-2.62 2.725.019 5.437.983 7.658 2.722 2.22 1.74 3.807 4.142 4.478 6.782.671 2.641.384 5.35-.81 7.649-1.195 2.298-3.22 4.038-5.717 4.912-2.498.874-5.307.826-7.932-.136l-14.269 18.22c1.34 1.987 2.066 4.275 2.082 6.563.015 2.287-.68 4.467-1.995 6.25-1.315 1.782-3.188 3.085-5.37 3.736-2.183.65-4.573.619-6.855-.091a12.984 12.984 0 01-5.927-3.888c-1.579-1.822-2.595-4.024-2.914-6.315-.32-2.292.072-4.566 1.124-6.521a10.13 10.13 0 014.768-4.431l-7.093-42.634a12.458 12.458 0 01-1.196-.367L25.68 45.088c1.558 2.317 2.274 5.03 2.022 7.662-.252 2.63-1.455 5.01-3.399 6.72-1.943 1.708-4.501 2.636-7.223 2.619-2.721-.017-5.431-.978-7.652-2.712zM40.04 13.828c-.596.762-.838 1.751-.672 2.75.166 1 .727 1.928 1.56 2.58.831.651 1.866.973 2.876.895 1.01-.078 1.913-.55 2.51-1.312.597-.762.838-1.751.672-2.75-.166-1-.727-1.928-1.559-2.58-.832-.65-1.867-.973-2.877-.895-1.01.078-1.913.55-2.51 1.312zm11.532 69.284c-.832-.652-1.393-1.58-1.56-2.579-.166-1 .076-1.989.673-2.75.596-.763 1.5-1.235 2.51-1.313 1.01-.078 2.044.244 2.876.896.832.651 1.393 1.58 1.56 2.579.166.999-.076 1.989-.672 2.75-.597.762-1.5 1.234-2.51 1.312-1.01.078-2.045-.244-2.877-.895zm26.111-39.804c-.597.762-.838 1.752-.672 2.751.166 1 .727 1.927 1.56 2.579.831.651 1.866.974 2.876.895 1.01-.078 1.913-.55 2.51-1.311.597-.762.838-1.752.672-2.751-.166-1-.727-1.927-1.56-2.579-.831-.651-1.866-.974-2.876-.896-1.01.078-1.913.55-2.51 1.312z" clip-rule="evenodd"/>
</svg>
