<svg xmlns="http://www.w3.org/2000/svg" width="20" height="21" fill="none" viewBox="0 0 20 21">
  <path fill="#F3F4F6" fill-rule="evenodd" d="M0 10.17c0 5.523 4.477 10 10 10s10-4.477 10-10c0-5.522-4.477-10-10-10s-10 4.478-10 10zm16.276-.382a5.955 5.955 0 01-5.946 5.946h-.003a5.94 5.94 0 01-2.841-.724l-3.153.827.844-3.081a5.936 5.936 0 01-.794-2.973 5.955 5.955 0 015.946-5.946c1.591 0 3.084.62 4.207 1.744a5.91 5.91 0 011.74 4.207z" clip-rule="evenodd"/>
  <path fill="#F3F4F6" fill-rule="evenodd" d="M5.761 14.424l1.87-.49.181.107c.759.45 1.629.688 2.516.689h.002a4.95 4.95 0 004.942-4.943c0-1.32-.513-2.562-1.446-3.496a4.909 4.909 0 00-3.494-1.45 4.95 4.95 0 00-4.945 4.942c0 .934.261 1.844.756 2.63l.117.188-.499 1.823zm7.36-3.356c.104.05.175.084.204.134.038.062.038.359-.086.706s-.718.664-1.003.707c-.256.038-.58.054-.936-.06a8.538 8.538 0 01-.847-.312c-1.393-.602-2.334-1.952-2.512-2.207L7.915 10l-.001-.001c-.079-.105-.606-.808-.606-1.536 0-.684.336-1.043.491-1.208l.03-.031a.546.546 0 01.395-.186 5.9 5.9 0 01.318.006c.087-.001.195-.002.301.254l.165.398c.127.312.269.656.294.705.037.075.061.161.012.26l-.021.043c-.037.076-.065.132-.128.206L9.09 9c-.05.062-.102.125-.147.169-.074.074-.151.154-.065.303.087.149.385.635.827 1.03.475.423.887.602 1.096.693.041.017.074.032.099.044.148.074.235.062.322-.037.086-.1.371-.434.47-.583.1-.149.198-.124.334-.074a24.83 24.83 0 011.097.523z" clip-rule="evenodd"/>
</svg>
